<svg width="170" height="170" viewBox="0 0 170 170" fill="none" xmlns="http://www.w3.org/2000/svg">
<g filter="url(#filter0_d_27_164)">
<path d="M140.5 80C142.985 80 145.018 82.0177 144.831 84.496C143.999 95.5725 140.105 106.233 133.541 115.267C126.093 125.518 115.592 133.148 103.541 137.063C91.4904 140.979 78.5096 140.979 66.459 137.063C54.4084 133.148 43.9067 125.518 36.459 115.267C29.0113 105.016 25 92.6708 25 80C25 67.3292 29.0113 54.9837 36.459 44.7329C43.9067 34.482 54.4084 26.8521 66.459 22.9366C77.079 19.486 88.4215 19.0763 99.213 21.7077C101.628 22.2964 102.918 24.8527 102.15 27.2164C101.382 29.58 98.8463 30.8527 96.4242 30.2959C87.4489 28.2329 78.0519 28.633 69.2401 31.4961C58.9971 34.8243 50.0707 41.3097 43.7401 50.0229C37.4096 58.7362 34 69.2299 34 80C34 90.7701 37.4096 101.264 43.7401 109.977C50.0707 118.69 58.9971 125.176 69.2401 128.504C79.4831 131.832 90.5169 131.832 100.76 128.504C111.003 125.176 119.929 118.69 126.26 109.977C131.706 102.481 134.99 93.6679 135.802 84.4944C136.021 82.0188 138.015 80 140.5 80Z" fill="url(#paint0_linear_27_164)" shape-rendering="crispEdges"/>
</g>
<defs>
<filter id="filter0_d_27_164" x="0" y="0" width="169.843" height="170" filterUnits="userSpaceOnUse" color-interpolation-filters="sRGB">
<feFlood flood-opacity="0" result="BackgroundImageFix"/>
<feColorMatrix in="SourceAlpha" type="matrix" values="0 0 0 0 0 0 0 0 0 0 0 0 0 0 0 0 0 0 127 0" result="hardAlpha"/>
<feMorphology radius="5" operator="dilate" in="SourceAlpha" result="effect1_dropShadow_27_164"/>
<feOffset dy="5"/>
<feGaussianBlur stdDeviation="10"/>
<feComposite in2="hardAlpha" operator="out"/>
<feColorMatrix type="matrix" values="0 0 0 0 0 0 0 0 0 0 0 0 0 0 0 0 0 0 0.05 0"/>
<feBlend mode="normal" in2="BackgroundImageFix" result="effect1_dropShadow_27_164"/>
<feBlend mode="normal" in="SourceGraphic" in2="effect1_dropShadow_27_164" result="shape"/>
</filter>
<linearGradient id="paint0_linear_27_164" x1="33.5" y1="6.49999" x2="168.5" y2="134.5" gradientUnits="userSpaceOnUse">
<stop stop-color="#21AFFF"/>
<stop offset="1" stop-color="#21AFFF" stop-opacity="0"/>
</linearGradient>
</defs>
</svg>
