<svg width="46" height="46" viewBox="0 0 46 46" fill="none" xmlns="http://www.w3.org/2000/svg">
<g clip-path="url(#clip0_25_139)">
<path d="M20.2159 20.5947C20.0265 20.0075 19.8561 19.4394 19.6667 18.8522C19.4773 18.2651 19.3068 17.7159 19.1553 17.1666C19.0038 16.6363 18.8712 16.1439 18.7386 15.6894H18.7008C18.5303 16.5038 18.322 17.3182 18.0568 18.1325C17.7727 19.0416 17.4886 19.9886 17.1856 20.9356C16.9205 21.9015 16.6364 22.7916 16.3523 23.5871H21.1629C21.0492 23.1875 20.8977 22.7159 20.7273 22.2216C20.5568 21.7121 20.3864 21.1628 20.2159 20.5947ZM37.678 0.840881H8.32198C3.87122 0.840881 0.272736 4.43937 0.272736 8.89012V37.1098C0.272736 41.5606 3.87122 45.1591 8.32198 45.1591H37.678C42.1288 45.1591 45.7273 41.5606 45.7273 37.1098V8.89012C45.7273 4.43937 42.1288 0.840881 37.678 0.840881ZM28.1136 32.1477H24.1534C24.0227 32.1666 23.8902 32.0719 23.8523 31.9394L22.2993 27.4318H15.2538L13.8144 31.8825C13.7765 32.053 13.625 32.1666 13.4546 32.1496H9.89395C9.68561 32.1496 9.6288 32.0341 9.68561 31.8087L15.7841 14.25C15.8409 14.0606 15.8977 13.8522 15.9735 13.625C16.0493 13.2272 16.0871 12.8106 16.0871 12.3939C16.0682 12.2992 16.1439 12.2045 16.2386 12.1856H21.1439C21.2955 12.1856 21.3712 12.2424 21.3902 12.3371L28.303 31.8447C28.3599 32.0511 28.303 32.1477 28.1136 32.1477ZM34.553 31.8636C34.553 32.0719 34.4792 32.1666 34.3087 32.1666H30.5947C30.4053 32.1666 30.3106 32.0511 30.3106 31.8636V17.2803C30.3106 17.0909 30.3883 17.0151 30.5587 17.0151H34.3087C34.4792 17.0151 34.553 17.1098 34.553 17.2803V31.8636ZM34.1572 14.7613C33.9335 14.9885 33.6638 15.1652 33.3663 15.2795C33.0687 15.3938 32.7501 15.4432 32.4318 15.4242C31.8068 15.4432 31.2008 15.1969 30.7443 14.7613C30.3104 14.2869 30.0793 13.6615 30.1004 13.0189C30.0814 12.375 30.3277 11.7689 30.7803 11.3333C31.2386 10.8977 31.8447 10.6704 32.4697 10.6704C33.2102 10.6704 33.7746 10.8977 34.1932 11.3333C34.6099 11.7879 34.8371 12.3939 34.8182 13.0189C34.8371 13.6629 34.6099 14.2879 34.1572 14.7613Z" fill="black"/>
</g>
<defs>
<clipPath id="clip0_25_139">
<rect width="45.4545" height="45.4545" fill="white" transform="translate(0.272736 0.272705)"/>
</clipPath>
</defs>
</svg>
