<svg width="25" height="25" viewBox="0 0 25 25" fill="none" xmlns="http://www.w3.org/2000/svg">
<g clip-path="url(#clip0_27_181)">
<path d="M25 5.68439V20.1729C25 21.1146 24.2375 21.8771 23.2958 21.8771H19.3177V12.2188L12.5 17.3333L5.68229 12.2188V21.8781H1.70417C1.48029 21.8781 1.2586 21.834 1.05177 21.7483C0.844943 21.6626 0.657031 21.537 0.498771 21.3786C0.340511 21.2203 0.215004 21.0323 0.129423 20.8254C0.0438421 20.6185 -0.000136529 20.3968 3.18387e-07 20.1729V5.68439C3.18387e-07 3.5771 2.40521 2.37397 4.09063 3.63855L5.68229 4.83335L12.5 9.94585L19.3177 4.83126L20.9094 3.63855C22.5938 2.37501 25 3.5771 25 5.68439Z" fill="white"/>
</g>
<defs>
<clipPath id="clip0_27_181">
<rect width="25" height="25" fill="white"/>
</clipPath>
</defs>
</svg>
