<svg width="25" height="25" viewBox="0 0 25 25" fill="none" xmlns="http://www.w3.org/2000/svg">
<path fill-rule="evenodd" clip-rule="evenodd" d="M1.04163 2.95624C1.04163 2.44846 1.24334 1.96148 1.60239 1.60243C1.96145 1.24337 2.44843 1.04166 2.95621 1.04166H22.0416C22.2933 1.04125 22.5425 1.09047 22.7751 1.18652C23.0077 1.28257 23.2191 1.42354 23.3971 1.60138C23.5751 1.77922 23.7163 1.99043 23.8126 2.22292C23.9089 2.45541 23.9584 2.7046 23.9583 2.95624V22.0417C23.9586 22.2934 23.9092 22.5426 23.8131 22.7752C23.7169 23.0078 23.5758 23.2192 23.3979 23.3972C23.22 23.5752 23.0087 23.7164 22.7761 23.8127C22.5436 23.909 22.2944 23.9585 22.0427 23.9583H2.95621C2.7047 23.9583 2.45565 23.9088 2.22329 23.8125C1.99093 23.7162 1.77983 23.5751 1.60203 23.3972C1.42423 23.2193 1.28322 23.0081 1.18707 22.7757C1.09091 22.5433 1.04149 22.2942 1.04163 22.0427V2.95624ZM10.1125 9.77916H13.2156V11.3375C13.6635 10.4417 14.8093 9.63541 16.5312 9.63541C19.8323 9.63541 20.6145 11.4198 20.6145 14.6937V20.7583H17.2739V15.4396C17.2739 13.575 16.826 12.5229 15.6885 12.5229C14.1104 12.5229 13.4541 13.6573 13.4541 15.4396V20.7583H10.1125V9.77916ZM4.38329 20.6156H7.72496V9.63541H4.38329V20.6146V20.6156ZM8.20309 6.05416C8.20939 6.34028 8.15847 6.62477 8.05333 6.89095C7.9482 7.15712 7.79095 7.39961 7.59083 7.60419C7.3907 7.80877 7.15173 7.97132 6.88793 8.08229C6.62414 8.19326 6.34083 8.25043 6.05465 8.25043C5.76846 8.25043 5.48516 8.19326 5.22136 8.08229C4.95757 7.97132 4.71859 7.80877 4.51847 7.60419C4.31834 7.39961 4.1611 7.15712 4.05596 6.89095C3.95082 6.62477 3.89991 6.34028 3.90621 6.05416C3.91858 5.49255 4.15036 4.95811 4.55192 4.56529C4.95349 4.17247 5.4929 3.95251 6.05465 3.95251C6.61639 3.95251 7.15581 4.17247 7.55737 4.56529C7.95893 4.95811 8.19072 5.49255 8.20309 6.05416Z" fill="white"/>
</svg>
