<svg width="46" height="46" viewBox="0 0 46 46" fill="none" xmlns="http://www.w3.org/2000/svg">
<g clip-path="url(#clip0_25_151)">
<path d="M19.4962 16.2197C18.7852 15.941 18.0244 15.812 17.2613 15.8409C16.573 15.8265 15.8843 15.8391 15.1969 15.8788V22.2424L15.9356 22.2803H16.9394C17.678 22.2803 18.4166 22.1666 19.1174 21.9394C19.7235 21.7689 20.2538 21.4091 20.6704 20.9356C21.0682 20.4621 21.2576 19.8182 21.2576 18.9848C21.3003 18.3958 21.1521 17.8087 20.8348 17.3106C20.5175 16.8125 20.0481 16.4299 19.4962 16.2197ZM37.678 0.840881H8.32195C6.18716 0.840881 4.1398 1.68892 2.63027 3.19845C1.12075 4.70798 0.272705 6.75533 0.272705 8.89012L0.272705 37.1098C0.272705 41.5606 3.87119 45.1591 8.32195 45.1591H37.678C42.1288 45.1591 45.7272 41.5606 45.7272 37.1098V8.89012C45.7272 4.43937 42.1288 0.840881 37.678 0.840881ZM24.25 22.9053C23.4924 23.9659 22.4318 24.7613 21.2007 25.2159C19.9129 25.6894 18.4924 25.8598 16.9394 25.8598L15.9924 25.8409L15.178 25.8219V31.9015C15.1834 31.9328 15.1821 31.9649 15.1743 31.9957C15.1665 32.0265 15.1523 32.0553 15.1327 32.0803C15.1131 32.1053 15.0884 32.1259 15.0603 32.1408C15.0323 32.1556 15.0014 32.1644 14.9697 32.1666H11.2954C11.1439 32.1666 11.0682 32.0909 11.0682 31.9204V12.4318C11.0682 12.2992 11.125 12.2235 11.2576 12.2235L12.3182 12.2045L13.7576 12.1666L15.4053 12.1288L17.1288 12.1098C18.6818 12.1098 19.9697 12.2992 21.0303 12.6969C21.9773 13.0189 22.8485 13.5492 23.5682 14.25C24.1742 14.856 24.6477 15.5947 24.9507 16.4091C25.2348 17.2045 25.3863 18.0189 25.3863 18.8712C25.3863 20.5 25.0076 21.8447 24.25 22.9053ZM37.1666 16.9394V20.6325C37.1666 20.7841 37.0719 20.8409 36.8636 20.8409C35.614 20.7955 34.3705 21.0351 33.2272 21.5416C32.8674 21.7121 32.5265 21.9394 32.2613 22.2424V31.9015C32.2613 32.0909 32.1856 32.1666 32.0151 32.1666H28.2841C28.2492 32.172 28.2136 32.1703 28.1794 32.1617C28.1452 32.1532 28.113 32.1378 28.0848 32.1167C28.0566 32.0955 28.0329 32.0689 28.0151 32.0385C27.9972 32.008 27.9857 31.9743 27.981 31.9394V21.3712L27.9621 19.9507L27.9242 18.4735C27.9242 18.0378 27.8863 17.6212 27.8485 17.1856C27.842 17.1407 27.8518 17.0951 27.8761 17.0568C27.9005 17.0186 27.9377 16.9904 27.981 16.9772H31.3522C31.5416 16.9772 31.6932 17.1098 31.731 17.2803C31.9022 17.845 31.9852 18.4327 31.9772 19.0227C32.5454 18.3598 33.2462 17.8106 34.0227 17.3939C34.9031 16.9049 35.8944 16.6505 36.9015 16.6553C37.0341 16.6363 37.1477 16.731 37.1666 16.8636V16.9394Z" fill="black"/>
</g>
<defs>
<clipPath id="clip0_25_151">
<rect width="45.4545" height="45.4545" fill="white" transform="translate(0.272705 0.272705)"/>
</clipPath>
</defs>
</svg>
