<svg width="46" height="46" viewBox="0 0 46 46" fill="none" xmlns="http://www.w3.org/2000/svg">
<g clip-path="url(#clip0_25_143)">
<path d="M18.928 16.2197C18.2273 15.9356 17.4697 15.8219 16.6932 15.8409C16.2008 15.8409 15.7652 15.8409 15.4053 15.8598C15.0265 15.8409 14.7614 15.8598 14.6288 15.8788V22.2424C14.8939 22.2613 15.1402 22.2803 15.3674 22.2803H16.3712C17.1099 22.2803 17.8485 22.1666 18.5492 21.9394C19.1553 21.7689 19.6856 21.4091 20.1023 20.9356C20.5 20.4621 20.6894 19.8182 20.6894 18.9848C20.7083 18.3977 20.5568 17.8106 20.2538 17.2992C19.938 16.8075 19.4736 16.4293 18.928 16.2197ZM37.678 0.840881H8.32198C3.87122 0.840881 0.272736 4.43937 0.272736 8.89012V37.1079C0.272736 41.5587 3.87122 45.1572 8.32198 45.1572H37.678C42.1288 45.1572 45.7273 41.5587 45.7273 37.1079V8.89012C45.7273 4.43937 42.1288 0.840881 37.678 0.840881ZM23.6799 22.9053C22.9243 23.9659 21.8636 24.7613 20.6326 25.2159C19.3447 25.6894 17.9242 25.8598 16.3712 25.8598C15.9167 25.8598 15.6136 25.8598 15.4243 25.8409C15.2349 25.8219 14.9697 25.8219 14.6099 25.8219V31.8996C14.6288 32.0322 14.5341 32.1477 14.4015 32.1666H10.7273C10.5758 32.1666 10.5 32.089 10.5 31.9185V12.4318C10.5 12.2992 10.5568 12.2235 10.6894 12.2235C11.0114 12.2235 11.3144 12.2235 11.75 12.2045C12.2046 12.1856 12.678 12.1856 13.1894 12.1666C13.7008 12.1477 14.25 12.1477 14.8371 12.1288C15.4243 12.1098 15.9924 12.1098 16.5606 12.1098C18.1136 12.1098 19.4015 12.2992 20.4621 12.6969C21.4091 13.0189 22.2803 13.5492 23 14.25C23.6061 14.856 24.0796 15.5947 24.3826 16.4091C24.6648 17.2045 24.8163 18.0189 24.8163 18.8712C24.8182 20.5 24.4394 21.8447 23.6799 22.9053ZM37.1099 30.2727C36.5796 31.0303 35.839 31.6155 34.9886 31.9602C34.0606 32.356 32.9242 32.5625 31.5587 32.5625C30.6894 32.5625 29.8352 32.4886 28.9849 32.3182C28.322 32.2026 27.6591 31.9962 27.053 31.7121C26.9205 31.6382 26.8239 31.5057 26.8428 31.3541V28.0587C26.8428 28.0038 26.8636 27.9261 26.9205 27.8882C26.9754 27.8504 27.0341 27.8693 27.0909 27.9072C27.8296 28.3428 28.6061 28.6477 29.4394 28.8352C30.1572 29.0246 30.9148 29.1193 31.6742 29.1193C32.3939 29.1193 32.9053 29.0227 33.2462 28.8522C33.5493 28.7197 33.7576 28.3977 33.7576 28.0568C33.7576 27.7897 33.6061 27.5454 33.303 27.2992C33 27.0549 32.3769 26.7708 31.4489 26.4072C30.483 26.0663 29.5947 25.6117 28.7595 25.0454C28.1668 24.621 27.6748 24.0714 27.3182 23.4356C27.0172 22.8363 26.8682 22.1723 26.8845 21.5019C26.8845 20.6875 27.1118 19.911 27.5303 19.2102C28.0038 18.4526 28.7027 17.8466 29.5171 17.4678C30.4053 17.0151 31.5227 16.8068 32.8674 16.8068C33.6439 16.8068 34.4394 16.8636 35.2159 16.9772C35.7841 17.053 36.3333 17.2045 36.8447 17.4129C36.9186 17.4318 36.9962 17.5075 37.0341 17.5833C37.053 17.6591 37.072 17.7348 37.072 17.8106V20.8977C37.072 20.9735 37.0341 21.0492 36.9773 21.0871C36.8068 21.125 36.7121 21.125 36.6364 21.0871C36.0682 20.7841 35.4621 20.5757 34.8182 20.4432C34.1174 20.2916 33.4167 20.1969 32.697 20.1969C32.3182 20.178 31.9205 20.2348 31.5587 20.3295C31.3144 20.3863 31.1042 20.5189 30.9716 20.7083C30.8769 20.8598 30.8201 21.0492 30.8201 21.2197C30.8201 21.3901 30.8958 21.5606 31.0114 21.7121C31.1818 21.9204 31.4072 22.0909 31.6553 22.2235C32.089 22.4507 32.5455 22.6591 32.9981 22.8485C34.0227 23.1894 35.0076 23.6628 35.9167 24.231C36.5417 24.6269 37.053 25.1591 37.411 25.803C37.714 26.4053 37.8655 27.0719 37.8466 27.7519C37.8674 28.6439 37.6023 29.5322 37.1099 30.2727Z" fill="black"/>
</g>
<defs>
<clipPath id="clip0_25_143">
<rect width="45.4545" height="45.4545" fill="white" transform="translate(0.272736 0.272705)"/>
</clipPath>
</defs>
</svg>
