<svg width="22" height="25" viewBox="0 0 22 25" fill="none" xmlns="http://www.w3.org/2000/svg">
<g clip-path="url(#clip0_22_72)">
<path d="M10.9399 5.99609C7.39014 5.99609 4.50439 8.88184 4.49951 12.4316C4.49951 13.6475 4.84131 14.834 5.48584 15.8545L5.63721 16.0986L4.98779 18.4717L7.42432 17.832L7.65869 17.9736C8.64502 18.5596 9.77783 18.8721 10.9351 18.8721H10.9399C14.4849 18.8721 17.4487 15.9863 17.4487 12.4365C17.4487 10.7178 16.7065 9.10156 15.4907 7.88574C14.27 6.66504 12.6587 5.99609 10.9399 5.99609ZM14.7241 15.1953C14.563 15.6494 13.7915 16.0596 13.4204 16.1133C12.8052 16.2061 12.3267 16.1572 11.1011 15.6299C9.1626 14.79 7.89307 12.8369 7.79541 12.71C7.69775 12.583 7.00439 11.6602 7.00439 10.708C7.00439 9.75586 7.50244 9.28711 7.68311 9.0918C7.85889 8.89648 8.06885 8.84766 8.20068 8.84766C8.32764 8.84766 8.45947 8.84766 8.57178 8.85254C8.68896 8.85742 8.8501 8.80859 9.00635 9.18457C9.16748 9.57031 9.55322 10.5225 9.60205 10.6201C9.65088 10.7178 9.68506 10.8301 9.6167 10.957C9.24561 11.6992 8.8501 11.6699 9.05029 12.0117C9.79736 13.2959 10.5444 13.7402 11.6821 14.3115C11.8774 14.4092 11.9897 14.3945 12.1021 14.2627C12.2144 14.1357 12.5854 13.6963 12.7124 13.5059C12.8394 13.3105 12.9712 13.3447 13.147 13.4082C13.3228 13.4717 14.2749 13.9404 14.4702 14.0381C14.6655 14.1357 14.7925 14.1846 14.8413 14.2627C14.8853 14.3555 14.8853 14.7461 14.7241 15.1953ZM19.5337 1.5625H2.34619C1.05225 1.5625 0.00244141 2.6123 0.00244141 3.90625V21.0938C0.00244141 22.3877 1.05225 23.4375 2.34619 23.4375H19.5337C20.8276 23.4375 21.8774 22.3877 21.8774 21.0938V3.90625C21.8774 2.6123 20.8276 1.5625 19.5337 1.5625ZM10.9351 20.1758C9.63623 20.1758 8.36182 19.8486 7.23389 19.2334L3.12744 20.3125L4.22607 16.2988C3.54736 15.127 3.19092 13.7939 3.19092 12.4268C3.1958 8.15918 6.66748 4.6875 10.9351 4.6875C13.0054 4.6875 14.9487 5.49316 16.4136 6.95801C17.8735 8.42285 18.7524 10.3662 18.7524 12.4365C18.7524 16.7041 15.2026 20.1758 10.9351 20.1758Z" fill="white"/>
</g>
<defs>
<clipPath id="clip0_22_72">
<rect width="21.88" height="25" fill="white"/>
</clipPath>
</defs>
</svg>
