<svg width="46" height="46" viewBox="0 0 46 46" fill="none" xmlns="http://www.w3.org/2000/svg">
<g clip-path="url(#clip0_25_147)">
<path d="M35.9451 0.840881H10.0549C7.4605 0.840881 4.97236 1.8715 3.13784 3.70602C1.30333 5.54054 0.272705 8.02868 0.272705 10.6231L0.272705 35.3769C0.272705 37.9713 1.30333 40.4594 3.13784 42.2939C4.97236 44.1284 7.4605 45.1591 10.0549 45.1591H35.9451C38.5395 45.1591 41.0276 44.1284 42.8621 42.2939C44.6966 40.4594 45.7272 37.9713 45.7272 35.3769V10.6231C45.7272 8.02868 44.6966 5.54054 42.8621 3.70602C41.0276 1.8715 38.5395 0.840881 35.9451 0.840881ZM24.3807 32.0738H20.0492C19.7462 32.0738 19.5303 32.0625 19.4091 31.8598C19.0019 31.0663 18.5947 30.2784 18.1894 29.4962C17.7703 28.6914 17.3384 27.8933 16.8939 27.1022C16.4321 26.2834 15.9794 25.4595 15.536 24.6307H15.5057C15.0952 25.4496 14.6734 26.2628 14.2405 27.07C13.8049 27.8825 13.3712 28.6913 12.9451 29.4943C12.5193 30.298 12.083 31.096 11.6363 31.8882C11.553 32.0719 11.411 32.0909 11.2064 32.0909H7.03028C6.94884 32.0909 6.90339 32.1231 6.89392 32.0416C6.88296 31.9672 6.89909 31.8912 6.93937 31.8276L12.8238 22.1591L7.09089 12.4659C7.02839 12.3844 7.01892 12.3182 7.06058 12.2632C7.083 12.2369 7.11135 12.2164 7.1433 12.2032C7.17524 12.19 7.20986 12.1846 7.2443 12.1875H11.5435C11.6372 12.1836 11.7307 12.1991 11.8182 12.2329C11.8907 12.2746 11.9529 12.3323 12 12.4015C12.3655 13.2159 12.7727 14.0284 13.2197 14.8409C13.6666 15.6534 14.1193 16.4564 14.5757 17.25C15.0322 18.0435 15.4545 18.8466 15.8409 19.6591H15.8712C16.2746 18.8257 16.6856 18.0132 17.106 17.2197C17.5265 16.4261 17.9526 15.6288 18.3863 14.8257C18.8238 14.0208 19.2443 13.2216 19.6515 12.4318C19.6741 12.3556 19.7158 12.2865 19.7727 12.231C19.8483 12.1934 19.9329 12.1776 20.017 12.1856H24.0113C24.0563 12.1746 24.1037 12.1818 24.1434 12.2056C24.1831 12.2293 24.2118 12.2677 24.2235 12.3125C24.2314 12.3447 24.2301 12.3785 24.2198 12.4099C24.2094 12.4414 24.1903 12.4694 24.1647 12.4905L24.1666 12.4981L18.4943 21.8598L24.5625 31.8011C24.6022 31.8712 24.6117 31.9526 24.5928 32.0303C24.5738 32.0985 24.5038 32.053 24.3807 32.0738ZM38.928 31.2784C37.9367 31.6913 36.9044 31.9979 35.8485 32.1932C34.8821 32.3726 33.9015 32.4645 32.9185 32.4678C31.5155 32.4884 30.1254 32.1973 28.8485 31.6155C27.6588 31.0646 26.6643 30.1658 25.9962 29.0378C25.262 27.7218 24.903 26.2295 24.9583 24.7235C24.947 23.3239 25.305 21.9462 25.9962 20.7291C26.7083 19.4894 27.7552 18.4752 29.017 17.803C30.6116 16.9697 32.4059 16.5947 34.2007 16.7197C34.3636 16.7291 34.5568 16.7443 34.7803 16.7651V10.7575C34.7803 10.6155 34.8409 10.5435 34.964 10.5435H38.8049C38.8476 10.5376 38.8909 10.5488 38.9253 10.5747C38.9598 10.6006 38.9825 10.6391 38.9886 10.6818C38.9905 10.6969 38.9905 10.7122 38.9886 10.7272V28.7519C38.9886 29.0985 39.0038 29.4735 39.0341 29.8807C39.0644 30.286 39.0909 30.6515 39.1098 30.9772C39.1138 31.04 39.0985 31.1024 39.066 31.1562C39.0335 31.2101 38.9854 31.2527 38.928 31.2784ZM34.2746 20.2708C34.4451 20.2879 34.6136 20.3182 34.7784 20.3617V28.6856C34.56 28.7505 34.3352 28.7912 34.1079 28.8068C33.844 28.8281 33.5792 28.8382 33.3144 28.8371C32.7807 28.8396 32.2501 28.7571 31.7424 28.5928C31.2624 28.4417 30.8241 28.181 30.4621 27.8314C30.0845 27.4509 29.7932 26.9936 29.6079 26.4905C29.381 25.8651 29.2724 25.203 29.2879 24.5379C29.2479 23.6901 29.4658 22.8502 29.9129 22.1288C30.3163 21.5303 30.8674 21.0473 31.5132 20.7253C32.1761 20.3977 32.9072 20.2291 33.6477 20.2367C33.8579 20.2405 34.0663 20.25 34.2746 20.2708Z" fill="black"/>
</g>
<defs>
<clipPath id="clip0_25_147">
<rect width="45.4545" height="45.4545" fill="white" transform="translate(0.272705 0.272705)"/>
</clipPath>
</defs>
</svg>
